<svg width="1201" height="316" viewBox="0 0 1201 316" fill="none" xmlns="http://www.w3.org/2000/svg">
<rect width="1201" height="316" rx="16" fill="#212844"/>
<mask id="mask0_105_1249" style="mask-type:alpha" maskUnits="userSpaceOnUse" x="692" y="0" width="509" height="316">
<path d="M692 0H1185C1193.84 0 1201 7.16344 1201 16V300C1201 308.837 1193.84 316 1185 316H692V0Z" fill="#D9D9D9"/>
</mask>
<g mask="url(#mask0_105_1249)">
<circle cx="974" cy="-81" r="240" fill="#2C3454"/>
<circle cx="974" cy="-81" r="257.5" stroke="#3C466B"/>
<ellipse cx="879" cy="326.5" rx="74" ry="73.5" fill="#2C3454"/>
<circle cx="879.5" cy="326.5" r="88" stroke="#3C466B"/>
</g>
<path d="M118.838 140.359C118.659 138.554 117.891 137.152 116.533 136.153C115.176 135.154 113.334 134.654 111.007 134.654C109.426 134.654 108.092 134.878 107.003 135.325C105.914 135.758 105.079 136.362 104.497 137.137C103.93 137.913 103.647 138.793 103.647 139.777C103.617 140.598 103.789 141.314 104.162 141.925C104.549 142.537 105.079 143.066 105.75 143.513C106.421 143.946 107.197 144.326 108.077 144.654C108.957 144.968 109.896 145.236 110.896 145.46L115.012 146.444C117.011 146.892 118.845 147.488 120.516 148.234C122.186 148.98 123.633 149.897 124.856 150.986C126.079 152.075 127.026 153.357 127.697 154.834C128.383 156.31 128.734 158.003 128.749 159.912C128.734 162.716 128.018 165.147 126.601 167.206C125.199 169.249 123.17 170.837 120.516 171.971C117.876 173.089 114.691 173.649 110.963 173.649C107.264 173.649 104.042 173.082 101.298 171.949C98.5685 170.815 96.4357 169.137 94.8995 166.915C93.3782 164.678 92.5803 161.911 92.5057 158.615H101.88C101.984 160.151 102.424 161.434 103.2 162.463C103.99 163.477 105.042 164.245 106.354 164.767C107.681 165.274 109.18 165.528 110.851 165.528C112.491 165.528 113.916 165.289 115.124 164.812C116.347 164.335 117.294 163.671 117.965 162.821C118.636 161.971 118.972 160.994 118.972 159.89C118.972 158.861 118.666 157.996 118.055 157.295C117.458 156.594 116.578 155.997 115.415 155.505C114.266 155.013 112.857 154.565 111.186 154.163L106.197 152.91C102.335 151.97 99.2844 150.501 97.0472 148.502C94.81 146.504 93.6989 143.812 93.7138 140.426C93.6989 137.652 94.4371 135.228 95.9286 133.155C97.435 131.082 99.5007 129.464 102.126 128.3C104.751 127.137 107.734 126.555 111.075 126.555C114.475 126.555 117.443 127.137 119.979 128.3C122.529 129.464 124.513 131.082 125.93 133.155C127.347 135.228 128.077 137.63 128.122 140.359H118.838ZM135.264 127.182H147.211L159.829 157.966H160.366L172.984 127.182H184.931V173H175.534V143.178H175.154L163.297 172.776H156.898L145.041 143.066H144.661V173H135.264V127.182ZM200.809 173H190.429L206.246 127.182H218.729L234.524 173H224.143L212.667 137.652H212.309L200.809 173ZM200.161 154.99H224.68V162.552H200.161V154.99ZM240.039 173V127.182H258.116C261.576 127.182 264.529 127.801 266.975 129.039C269.436 130.262 271.308 131.999 272.59 134.251C273.888 136.489 274.537 139.121 274.537 142.149C274.537 145.191 273.881 147.809 272.568 150.001C271.256 152.179 269.354 153.849 266.863 155.013C264.387 156.176 261.389 156.758 257.869 156.758H245.766V148.972H256.303C258.153 148.972 259.689 148.719 260.912 148.212C262.135 147.705 263.045 146.944 263.642 145.93C264.253 144.915 264.559 143.655 264.559 142.149C264.559 140.627 264.253 139.345 263.642 138.301C263.045 137.257 262.128 136.466 260.89 135.929C259.667 135.377 258.123 135.102 256.259 135.102H249.726V173H240.039ZM264.782 152.149L276.17 173H265.476L254.335 152.149H264.782ZM279.638 135.169V127.182H317.268V135.169H303.24V173H293.665V135.169H279.638ZM348.359 173L335.249 127.182H345.831L353.415 159.017H353.796L362.163 127.182H371.224L379.568 159.085H379.971L387.555 127.182H398.137L385.027 173H375.586L366.861 143.044H366.503L357.8 173H348.359ZM403.322 173V127.182H434.196V135.169H413.009V146.086H432.607V154.073H413.009V165.013H434.285V173H403.322ZM449.795 173H439.414L455.231 127.182H467.715L483.51 173H473.129L461.652 137.652H461.294L449.795 173ZM449.146 154.99H473.666V162.552H449.146V154.99ZM489.024 173V127.182H507.101C510.561 127.182 513.514 127.801 515.96 129.039C518.421 130.262 520.293 131.999 521.576 134.251C522.873 136.489 523.522 139.121 523.522 142.149C523.522 145.191 522.866 147.809 521.553 150.001C520.241 152.179 518.339 153.849 515.848 155.013C513.373 156.176 510.375 156.758 506.855 156.758H494.752V148.972H505.289C507.138 148.972 508.674 148.719 509.897 148.212C511.12 147.705 512.03 146.944 512.627 145.93C513.238 144.915 513.544 143.655 513.544 142.149C513.544 140.627 513.238 139.345 512.627 138.301C512.03 137.257 511.113 136.466 509.875 135.929C508.652 135.377 507.108 135.102 505.244 135.102H498.711V173H489.024ZM513.768 152.149L525.155 173H514.461L503.32 152.149H513.768ZM538.265 173H527.885L543.702 127.182H556.185L571.98 173H561.6L550.123 137.652H549.765L538.265 173ZM537.617 154.99H562.136V162.552H537.617V154.99ZM577.495 173V127.182H595.84C599.211 127.182 602.022 127.681 604.274 128.681C606.527 129.68 608.219 131.067 609.353 132.842C610.486 134.602 611.053 136.63 611.053 138.927C611.053 140.717 610.695 142.29 609.979 143.648C609.263 144.99 608.279 146.094 607.026 146.959C605.788 147.809 604.371 148.413 602.775 148.771V149.218C604.521 149.293 606.154 149.785 607.675 150.695C609.211 151.605 610.457 152.88 611.411 154.521C612.366 156.146 612.843 158.085 612.843 160.337C612.843 162.768 612.239 164.939 611.031 166.848C609.838 168.742 608.07 170.241 605.729 171.344C603.387 172.448 600.501 173 597.071 173H577.495ZM587.182 165.08H595.079C597.779 165.08 599.748 164.566 600.986 163.537C602.224 162.493 602.843 161.105 602.843 159.375C602.843 158.108 602.537 156.989 601.925 156.02C601.314 155.05 600.441 154.289 599.308 153.738C598.189 153.186 596.854 152.91 595.303 152.91H587.182V165.08ZM587.182 146.355H594.364C595.691 146.355 596.869 146.124 597.898 145.661C598.942 145.184 599.763 144.513 600.359 143.648C600.971 142.783 601.277 141.746 601.277 140.538C601.277 138.882 600.687 137.548 599.509 136.533C598.346 135.519 596.69 135.012 594.543 135.012H587.182V146.355ZM619.146 173V127.182H628.833V165.013H648.476V173H619.146ZM654.891 173V127.182H685.765V135.169H664.579V146.086H684.177V154.073H664.579V165.013H685.854V173H654.891ZM698.858 173.582C697.382 173.582 696.114 173.06 695.055 172.016C694.011 170.957 693.489 169.689 693.489 168.212C693.489 166.751 694.011 165.498 695.055 164.454C696.114 163.41 697.382 162.888 698.858 162.888C700.29 162.888 701.543 163.41 702.617 164.454C703.691 165.498 704.228 166.751 704.228 168.212C704.228 169.197 703.974 170.099 703.467 170.919C702.975 171.725 702.326 172.374 701.521 172.866C700.715 173.343 699.828 173.582 698.858 173.582Z" fill="white"/>
<path d="M92.152 95V73.1818H100.504C102.081 73.1818 103.391 73.4304 104.435 73.9276C105.487 74.4176 106.271 75.0888 106.79 75.9411C107.315 76.7933 107.578 77.7592 107.578 78.8388C107.578 79.7266 107.408 80.4865 107.067 81.1186C106.726 81.7436 106.268 82.2514 105.692 82.642C105.117 83.0327 104.474 83.3132 103.764 83.4837V83.6967C104.538 83.7393 105.281 83.9773 105.991 84.4105C106.708 84.8366 107.294 85.4403 107.749 86.2216C108.203 87.0028 108.43 87.9474 108.43 89.0554C108.43 90.1847 108.157 91.2003 107.61 92.1023C107.063 92.9972 106.239 93.7038 105.138 94.2223C104.038 94.7408 102.653 95 100.984 95H92.152ZM96.1044 91.6974H100.355C101.79 91.6974 102.823 91.424 103.455 90.8771C104.094 90.3232 104.414 89.6129 104.414 88.7464C104.414 88.1001 104.254 87.5178 103.935 86.9993C103.615 86.4737 103.161 86.0618 102.571 85.7635C101.982 85.4581 101.278 85.3054 100.462 85.3054H96.1044V91.6974ZM96.1044 82.4609H100.014C100.696 82.4609 101.31 82.3366 101.857 82.0881C102.404 81.8324 102.834 81.4737 103.146 81.0121C103.466 80.5433 103.626 79.9893 103.626 79.3501C103.626 78.505 103.327 77.8089 102.731 77.2621C102.141 76.7152 101.264 76.4418 100.099 76.4418H96.1044V82.4609ZM118.943 95.3196C117.302 95.3196 115.885 94.9787 114.692 94.2969C113.506 93.608 112.593 92.6349 111.954 91.3778C111.315 90.1136 110.995 88.6257 110.995 86.9141C110.995 85.2308 111.315 83.7536 111.954 82.4822C112.6 81.2038 113.502 80.2095 114.66 79.4993C115.818 78.782 117.178 78.4233 118.74 78.4233C119.749 78.4233 120.7 78.5866 121.595 78.9134C122.497 79.233 123.293 79.7301 123.982 80.4048C124.678 81.0795 125.225 81.9389 125.622 82.983C126.02 84.0199 126.219 85.2557 126.219 86.6903V87.8729H112.806V85.2734H122.522C122.515 84.5348 122.355 83.8778 122.043 83.3026C121.73 82.7202 121.294 82.2621 120.732 81.9283C120.178 81.5945 119.532 81.4276 118.794 81.4276C118.005 81.4276 117.313 81.6193 116.716 82.0028C116.119 82.3793 115.654 82.8764 115.32 83.4943C114.994 84.1051 114.827 84.7763 114.82 85.5078V87.777C114.82 88.7287 114.994 89.5455 115.342 90.2273C115.69 90.902 116.176 91.4205 116.801 91.7827C117.426 92.1378 118.158 92.3153 118.996 92.3153C119.557 92.3153 120.065 92.2372 120.519 92.081C120.974 91.9176 121.368 91.6797 121.702 91.3672C122.036 91.0547 122.288 90.6676 122.458 90.206L126.059 90.6108C125.832 91.5625 125.399 92.3935 124.759 93.1037C124.127 93.8068 123.318 94.3537 122.33 94.7443C121.343 95.1278 120.214 95.3196 118.943 95.3196ZM142.415 82.9616L138.899 83.3452C138.8 82.9901 138.626 82.6562 138.377 82.3438C138.136 82.0312 137.809 81.7791 137.397 81.5874C136.985 81.3956 136.481 81.2997 135.884 81.2997C135.082 81.2997 134.407 81.4737 133.86 81.8217C133.32 82.1697 133.054 82.6207 133.061 83.1747C133.054 83.6506 133.228 84.0376 133.583 84.3359C133.945 84.6342 134.542 84.8793 135.373 85.071L138.164 85.6676C139.712 86.0014 140.863 86.5305 141.616 87.255C142.376 87.9794 142.759 88.9276 142.766 90.0994C142.759 91.1293 142.457 92.0384 141.861 92.8267C141.271 93.608 140.451 94.2187 139.4 94.6591C138.349 95.0994 137.141 95.3196 135.778 95.3196C133.775 95.3196 132.163 94.9006 130.941 94.0625C129.719 93.2173 128.991 92.0419 128.757 90.5362L132.518 90.174C132.688 90.9126 133.05 91.4702 133.604 91.8466C134.158 92.223 134.879 92.4112 135.767 92.4112C136.683 92.4112 137.418 92.223 137.972 91.8466C138.533 91.4702 138.814 91.005 138.814 90.451C138.814 89.9822 138.633 89.5952 138.271 89.2898C137.915 88.9844 137.362 88.75 136.609 88.5866L133.817 88.0007C132.248 87.674 131.087 87.1236 130.334 86.3494C129.581 85.5682 129.208 84.581 129.215 83.3878C129.208 82.3793 129.482 81.5057 130.036 80.767C130.597 80.0213 131.374 79.446 132.369 79.0412C133.37 78.6293 134.524 78.4233 135.831 78.4233C137.749 78.4233 139.258 78.8317 140.359 79.6484C141.467 80.4652 142.152 81.5696 142.415 82.9616ZM154.118 78.6364V81.6193H144.711V78.6364H154.118ZM147.033 74.7159H150.89V90.0781C150.89 90.5966 150.968 90.9943 151.124 91.2713C151.287 91.5412 151.5 91.7259 151.763 91.8253C152.026 91.9247 152.317 91.9744 152.637 91.9744C152.878 91.9744 153.098 91.9567 153.297 91.9212C153.503 91.8857 153.659 91.8537 153.766 91.8253L154.416 94.8402C154.21 94.9112 153.915 94.9893 153.532 95.0746C153.155 95.1598 152.694 95.2095 152.147 95.2237C151.181 95.2521 150.311 95.1065 149.537 94.7869C148.762 94.4602 148.148 93.956 147.694 93.2741C147.246 92.5923 147.026 91.7401 147.033 90.7173V74.7159ZM172.348 95H164.955V73.1818H172.497C174.664 73.1818 176.524 73.6186 178.08 74.4922C179.642 75.3587 180.843 76.6051 181.681 78.2315C182.519 79.858 182.938 81.804 182.938 84.0696C182.938 86.3423 182.515 88.2955 181.67 89.929C180.832 91.5625 179.621 92.8161 178.037 93.6896C176.46 94.5632 174.564 95 172.348 95ZM168.907 91.5803H172.156C173.676 91.5803 174.944 91.3033 175.96 90.7493C176.975 90.1882 177.739 89.3537 178.25 88.2457C178.762 87.1307 179.017 85.7386 179.017 84.0696C179.017 82.4006 178.762 81.0156 178.25 79.9148C177.739 78.8068 176.982 77.9794 175.981 77.4325C174.987 76.8786 173.751 76.6016 172.274 76.6016H168.907V91.5803ZM193.767 95.3196C192.126 95.3196 190.709 94.9787 189.516 94.2969C188.33 93.608 187.417 92.6349 186.778 91.3778C186.139 90.1136 185.819 88.6257 185.819 86.9141C185.819 85.2308 186.139 83.7536 186.778 82.4822C187.425 81.2038 188.327 80.2095 189.484 79.4993C190.642 78.782 192.002 78.4233 193.564 78.4233C194.573 78.4233 195.525 78.5866 196.42 78.9134C197.322 79.233 198.117 79.7301 198.806 80.4048C199.502 81.0795 200.049 81.9389 200.447 82.983C200.844 84.0199 201.043 85.2557 201.043 86.6903V87.8729H187.631V85.2734H197.346C197.339 84.5348 197.18 83.8778 196.867 83.3026C196.555 82.7202 196.118 82.2621 195.557 81.9283C195.003 81.5945 194.356 81.4276 193.618 81.4276C192.829 81.4276 192.137 81.6193 191.54 82.0028C190.944 82.3793 190.479 82.8764 190.145 83.4943C189.818 84.1051 189.651 84.7763 189.644 85.5078V87.777C189.644 88.7287 189.818 89.5455 190.166 90.2273C190.514 90.902 191.001 91.4205 191.626 91.7827C192.251 92.1378 192.982 92.3153 193.82 92.3153C194.381 92.3153 194.889 92.2372 195.344 92.081C195.798 91.9176 196.192 91.6797 196.526 91.3672C196.86 91.0547 197.112 90.6676 197.282 90.206L200.883 90.6108C200.656 91.5625 200.223 92.3935 199.584 93.1037C198.952 93.8068 198.142 94.3537 197.155 94.7443C196.167 95.1278 195.038 95.3196 193.767 95.3196ZM209.015 95.3303C207.978 95.3303 207.044 95.1456 206.213 94.7763C205.389 94.3999 204.735 93.8459 204.252 93.1143C203.777 92.3828 203.539 91.4808 203.539 90.4084C203.539 89.4851 203.709 88.7216 204.05 88.1179C204.391 87.5142 204.856 87.0312 205.446 86.669C206.035 86.3068 206.699 86.0334 207.438 85.8487C208.184 85.657 208.954 85.5185 209.75 85.4332C210.708 85.3338 211.486 85.245 212.083 85.1669C212.679 85.0817 213.113 84.9538 213.382 84.7834C213.659 84.6058 213.798 84.3324 213.798 83.9631V83.8991C213.798 83.0966 213.56 82.4751 213.084 82.0348C212.608 81.5945 211.923 81.3743 211.028 81.3743C210.083 81.3743 209.334 81.5803 208.78 81.9922C208.233 82.4041 207.864 82.8906 207.672 83.4517L204.071 82.9403C204.355 81.946 204.824 81.1151 205.478 80.4474C206.131 79.7727 206.93 79.2685 207.875 78.9347C208.819 78.5938 209.863 78.4233 211.007 78.4233C211.795 78.4233 212.58 78.5156 213.361 78.7003C214.142 78.8849 214.856 79.1903 215.502 79.6165C216.149 80.0355 216.667 80.6072 217.058 81.3317C217.456 82.0561 217.654 82.9616 217.654 84.0483V95H213.947V92.7521H213.819C213.585 93.2067 213.255 93.6328 212.828 94.0305C212.409 94.4212 211.88 94.7372 211.241 94.9787C210.609 95.2131 209.867 95.3303 209.015 95.3303ZM210.016 92.4964C210.79 92.4964 211.461 92.3437 212.029 92.0384C212.598 91.7259 213.034 91.3139 213.34 90.8026C213.652 90.2912 213.809 89.7337 213.809 89.13V87.2017C213.688 87.3011 213.482 87.3935 213.191 87.4787C212.907 87.5639 212.587 87.6385 212.232 87.7024C211.877 87.7663 211.525 87.8232 211.177 87.8729C210.829 87.9226 210.527 87.9652 210.272 88.0007C209.696 88.0788 209.181 88.2067 208.727 88.3842C208.272 88.5618 207.914 88.8104 207.651 89.13C207.388 89.4425 207.257 89.8473 207.257 90.3445C207.257 91.0547 207.516 91.5909 208.034 91.9531C208.553 92.3153 209.213 92.4964 210.016 92.4964ZM225.389 73.1818V95H221.532V73.1818H225.389ZM256.462 84.0909C256.462 86.4418 256.022 88.4553 255.141 90.1314C254.268 91.8004 253.074 93.0788 251.562 93.9666C250.056 94.8544 248.348 95.2983 246.437 95.2983C244.527 95.2983 242.815 94.8544 241.302 93.9666C239.797 93.0717 238.604 91.7898 237.723 90.1207C236.849 88.4446 236.412 86.4347 236.412 84.0909C236.412 81.7401 236.849 79.7301 237.723 78.0611C238.604 76.3849 239.797 75.103 241.302 74.2152C242.815 73.3274 244.527 72.8835 246.437 72.8835C248.348 72.8835 250.056 73.3274 251.562 74.2152C253.074 75.103 254.268 76.3849 255.141 78.0611C256.022 79.7301 256.462 81.7401 256.462 84.0909ZM252.488 84.0909C252.488 82.4361 252.229 81.0405 251.711 79.9041C251.199 78.7607 250.489 77.8977 249.58 77.3153C248.671 76.7259 247.623 76.4311 246.437 76.4311C245.251 76.4311 244.204 76.7259 243.295 77.3153C242.385 77.8977 241.672 78.7607 241.153 79.9041C240.642 81.0405 240.386 82.4361 240.386 84.0909C240.386 85.7457 240.642 87.1449 241.153 88.2884C241.672 89.4247 242.385 90.2876 243.295 90.8771C244.204 91.4595 245.251 91.7507 246.437 91.7507C247.623 91.7507 248.671 91.4595 249.58 90.8771C250.489 90.2876 251.199 89.4247 251.711 88.2884C252.229 87.1449 252.488 85.7457 252.488 84.0909ZM263.885 85.4119V95H260.028V78.6364H263.714V81.4169H263.906C264.283 80.5007 264.883 79.7727 265.707 79.233C266.538 78.6932 267.564 78.4233 268.786 78.4233C269.915 78.4233 270.898 78.6648 271.737 79.1477C272.582 79.6307 273.235 80.3303 273.697 81.2464C274.165 82.1626 274.396 83.2741 274.389 84.581V95H270.533V85.1776C270.533 84.0838 270.249 83.228 269.68 82.6101C269.119 81.9922 268.342 81.6832 267.347 81.6832C266.673 81.6832 266.072 81.8324 265.547 82.1307C265.028 82.4219 264.62 82.8445 264.322 83.3984C264.031 83.9524 263.885 84.6236 263.885 85.4119ZM282.166 73.1818V95H278.31V73.1818H282.166ZM286.132 95V78.6364H289.988V95H286.132ZM288.071 76.3139C287.46 76.3139 286.934 76.1115 286.494 75.7067C286.054 75.2947 285.834 74.8011 285.834 74.2259C285.834 73.6435 286.054 73.1499 286.494 72.745C286.934 72.3331 287.46 72.1271 288.071 72.1271C288.689 72.1271 289.214 72.3331 289.648 72.745C290.088 73.1499 290.308 73.6435 290.308 74.2259C290.308 74.8011 290.088 75.2947 289.648 75.7067C289.214 76.1115 288.689 76.3139 288.071 76.3139ZM297.811 85.4119V95H293.954V78.6364H297.64V81.4169H297.832C298.208 80.5007 298.809 79.7727 299.632 79.233C300.463 78.6932 301.49 78.4233 302.711 78.4233C303.841 78.4233 304.824 78.6648 305.662 79.1477C306.507 79.6307 307.161 80.3303 307.623 81.2464C308.091 82.1626 308.322 83.2741 308.315 84.581V95H304.458V85.1776C304.458 84.0838 304.174 83.228 303.606 82.6101C303.045 81.9922 302.267 81.6832 301.273 81.6832C300.598 81.6832 299.998 81.8324 299.473 82.1307C298.954 82.4219 298.546 82.8445 298.248 83.3984C297.956 83.9524 297.811 84.6236 297.811 85.4119ZM319.48 95.3196C317.839 95.3196 316.422 94.9787 315.229 94.2969C314.043 93.608 313.13 92.6349 312.491 91.3778C311.852 90.1136 311.532 88.6257 311.532 86.9141C311.532 85.2308 311.852 83.7536 312.491 82.4822C313.137 81.2038 314.039 80.2095 315.197 79.4993C316.355 78.782 317.715 78.4233 319.277 78.4233C320.286 78.4233 321.238 78.5866 322.132 78.9134C323.034 79.233 323.83 79.7301 324.519 80.4048C325.215 81.0795 325.762 81.9389 326.159 82.983C326.557 84.0199 326.756 85.2557 326.756 86.6903V87.8729H313.343V85.2734H323.059C323.052 84.5348 322.892 83.8778 322.58 83.3026C322.267 82.7202 321.831 82.2621 321.27 81.9283C320.716 81.5945 320.069 81.4276 319.331 81.4276C318.542 81.4276 317.85 81.6193 317.253 82.0028C316.657 82.3793 316.191 82.8764 315.858 83.4943C315.531 84.1051 315.364 84.7763 315.357 85.5078V87.777C315.357 88.7287 315.531 89.5455 315.879 90.2273C316.227 90.902 316.713 91.4205 317.338 91.7827C317.963 92.1378 318.695 92.3153 319.533 92.3153C320.094 92.3153 320.602 92.2372 321.056 92.081C321.511 91.9176 321.905 91.6797 322.239 91.3672C322.573 91.0547 322.825 90.6676 322.995 90.206L326.596 90.6108C326.369 91.5625 325.936 92.3935 325.297 93.1037C324.664 93.8068 323.855 94.3537 322.868 94.7443C321.88 95.1278 320.751 95.3196 319.48 95.3196ZM344.598 95.3196C343 95.3196 341.615 94.968 340.443 94.2649C339.271 93.5618 338.362 92.5781 337.716 91.3139C337.077 90.0497 336.757 88.5724 336.757 86.8821C336.757 85.1918 337.077 83.7109 337.716 82.4396C338.362 81.1683 339.271 80.1811 340.443 79.478C341.615 78.7749 343 78.4233 344.598 78.4233C346.196 78.4233 347.581 78.7749 348.753 79.478C349.925 80.1811 350.83 81.1683 351.469 82.4396C352.116 83.7109 352.439 85.1918 352.439 86.8821C352.439 88.5724 352.116 90.0497 351.469 91.3139C350.83 92.5781 349.925 93.5618 348.753 94.2649C347.581 94.968 346.196 95.3196 344.598 95.3196ZM344.619 92.2301C345.486 92.2301 346.21 91.9922 346.792 91.5163C347.375 91.0334 347.808 90.3871 348.092 89.5774C348.383 88.7678 348.529 87.8658 348.529 86.8714C348.529 85.87 348.383 84.9645 348.092 84.1548C347.808 83.3381 347.375 82.6882 346.792 82.2053C346.21 81.7223 345.486 81.4808 344.619 81.4808C343.731 81.4808 342.993 81.7223 342.403 82.2053C341.821 82.6882 341.384 83.3381 341.093 84.1548C340.809 84.9645 340.667 85.87 340.667 86.8714C340.667 87.8658 340.809 88.7678 341.093 89.5774C341.384 90.3871 341.821 91.0334 342.403 91.5163C342.993 91.9922 343.731 92.2301 344.619 92.2301ZM359.569 85.4119V95H355.712V78.6364H359.398V81.4169H359.59C359.966 80.5007 360.566 79.7727 361.39 79.233C362.221 78.6932 363.248 78.4233 364.469 78.4233C365.598 78.4233 366.582 78.6648 367.42 79.1477C368.265 79.6307 368.919 80.3303 369.38 81.2464C369.849 82.1626 370.08 83.2741 370.073 84.581V95H366.216V85.1776C366.216 84.0838 365.932 83.228 365.364 82.6101C364.803 81.9922 364.025 81.6832 363.031 81.6832C362.356 81.6832 361.756 81.8324 361.23 82.1307C360.712 82.4219 360.304 82.8445 360.005 83.3984C359.714 83.9524 359.569 84.6236 359.569 85.4119ZM394.368 82.9616L390.852 83.3452C390.753 82.9901 390.579 82.6562 390.33 82.3438C390.089 82.0312 389.762 81.7791 389.35 81.5874C388.938 81.3956 388.434 81.2997 387.837 81.2997C387.035 81.2997 386.36 81.4737 385.813 81.8217C385.273 82.1697 385.007 82.6207 385.014 83.1747C385.007 83.6506 385.181 84.0376 385.536 84.3359C385.898 84.6342 386.495 84.8793 387.326 85.071L390.117 85.6676C391.665 86.0014 392.816 86.5305 393.569 87.255C394.329 87.9794 394.712 88.9276 394.719 90.0994C394.712 91.1293 394.411 92.0384 393.814 92.8267C393.224 93.608 392.404 94.2187 391.353 94.6591C390.302 95.0994 389.094 95.3196 387.731 95.3196C385.728 95.3196 384.116 94.9006 382.894 94.0625C381.673 93.2173 380.945 92.0419 380.71 90.5362L384.471 90.174C384.641 90.9126 385.004 91.4702 385.558 91.8466C386.112 92.223 386.832 92.4112 387.72 92.4112C388.636 92.4112 389.371 92.223 389.925 91.8466C390.487 91.4702 390.767 91.005 390.767 90.451C390.767 89.9822 390.586 89.5952 390.224 89.2898C389.869 88.9844 389.315 88.75 388.562 88.5866L385.771 88.0007C384.201 87.674 383.04 87.1236 382.287 86.3494C381.534 85.5682 381.161 84.581 381.168 83.3878C381.161 82.3793 381.435 81.5057 381.989 80.767C382.55 80.0213 383.327 79.446 384.322 79.0412C385.323 78.6293 386.477 78.4233 387.784 78.4233C389.702 78.4233 391.211 78.8317 392.312 79.6484C393.42 80.4652 394.105 81.5696 394.368 82.9616ZM397.9 95V78.6364H401.586V81.4169H401.777C402.118 80.4794 402.683 79.7479 403.471 79.2223C404.26 78.6896 405.201 78.4233 406.294 78.4233C407.402 78.4233 408.336 78.6932 409.096 79.233C409.863 79.7656 410.403 80.4936 410.716 81.4169H410.886C411.248 80.5078 411.859 79.7834 412.718 79.2436C413.585 78.6967 414.611 78.4233 415.797 78.4233C417.303 78.4233 418.532 78.8991 419.483 79.8509C420.435 80.8026 420.911 82.1911 420.911 84.0163V95H417.044V84.6129C417.044 83.5973 416.774 82.8551 416.234 82.3864C415.694 81.9105 415.034 81.6726 414.252 81.6726C413.322 81.6726 412.594 81.9638 412.069 82.5462C411.55 83.1214 411.291 83.8707 411.291 84.794V95H407.509V84.4531C407.509 83.608 407.253 82.9332 406.742 82.429C406.238 81.9247 405.577 81.6726 404.76 81.6726C404.206 81.6726 403.702 81.8146 403.248 82.0987C402.793 82.3757 402.431 82.7699 402.161 83.2812C401.891 83.7855 401.756 84.375 401.756 85.0497V95H397.9ZM429.532 95.3303C428.495 95.3303 427.561 95.1456 426.73 94.7763C425.906 94.3999 425.253 93.8459 424.77 93.1143C424.294 92.3828 424.056 91.4808 424.056 90.4084C424.056 89.4851 424.227 88.7216 424.568 88.1179C424.909 87.5142 425.374 87.0312 425.963 86.669C426.553 86.3068 427.217 86.0334 427.955 85.8487C428.701 85.657 429.472 85.5185 430.267 85.4332C431.226 85.3338 432.004 85.245 432.6 85.1669C433.197 85.0817 433.63 84.9538 433.9 84.7834C434.177 84.6058 434.316 84.3324 434.316 83.9631V83.8991C434.316 83.0966 434.078 82.4751 433.602 82.0348C433.126 81.5945 432.441 81.3743 431.546 81.3743C430.601 81.3743 429.852 81.5803 429.298 81.9922C428.751 82.4041 428.382 82.8906 428.19 83.4517L424.589 82.9403C424.873 81.946 425.342 81.1151 425.995 80.4474C426.649 79.7727 427.448 79.2685 428.392 78.9347C429.337 78.5938 430.381 78.4233 431.524 78.4233C432.313 78.4233 433.097 78.5156 433.879 78.7003C434.66 78.8849 435.374 79.1903 436.02 79.6165C436.666 80.0355 437.185 80.6072 437.575 81.3317C437.973 82.0561 438.172 82.9616 438.172 84.0483V95H434.465V92.7521H434.337C434.102 93.2067 433.772 93.6328 433.346 94.0305C432.927 94.4212 432.398 94.7372 431.759 94.9787C431.127 95.2131 430.384 95.3303 429.532 95.3303ZM430.534 92.4964C431.308 92.4964 431.979 92.3437 432.547 92.0384C433.115 91.7259 433.552 91.3139 433.857 90.8026C434.17 90.2912 434.326 89.7337 434.326 89.13V87.2017C434.205 87.3011 433.999 87.3935 433.708 87.4787C433.424 87.5639 433.105 87.6385 432.749 87.7024C432.394 87.7663 432.043 87.8232 431.695 87.8729C431.347 87.9226 431.045 87.9652 430.789 88.0007C430.214 88.0788 429.699 88.2067 429.244 88.3842C428.79 88.5618 428.431 88.8104 428.169 89.13C427.906 89.4425 427.774 89.8473 427.774 90.3445C427.774 91.0547 428.034 91.5909 428.552 91.9531C429.07 92.3153 429.731 92.4964 430.534 92.4964ZM442.05 95V78.6364H445.789V81.3636H445.96C446.258 80.419 446.769 79.6911 447.494 79.1797C448.225 78.6612 449.06 78.402 449.997 78.402C450.21 78.402 450.448 78.4126 450.711 78.4339C450.981 78.4482 451.205 78.473 451.382 78.5085V82.0561C451.219 81.9993 450.96 81.9496 450.605 81.907C450.257 81.8572 449.919 81.8324 449.593 81.8324C448.889 81.8324 448.257 81.9851 447.696 82.2905C447.142 82.5888 446.705 83.0043 446.386 83.5369C446.066 84.0696 445.906 84.6839 445.906 85.38V95H442.05ZM462.994 78.6364V81.6193H453.588V78.6364H462.994ZM455.91 74.7159H459.767V90.0781C459.767 90.5966 459.845 90.9943 460.001 91.2713C460.164 91.5412 460.377 91.7259 460.64 91.8253C460.903 91.9247 461.194 91.9744 461.514 91.9744C461.755 91.9744 461.975 91.9567 462.174 91.9212C462.38 91.8857 462.536 91.8537 462.643 91.8253L463.293 94.8402C463.087 94.9112 462.792 94.9893 462.409 95.0746C462.032 95.1598 461.57 95.2095 461.024 95.2237C460.058 95.2521 459.188 95.1065 458.414 94.7869C457.639 94.4602 457.025 93.956 456.57 93.2741C456.123 92.5923 455.903 91.7401 455.91 90.7173V74.7159ZM477.038 95L472.415 78.6364H476.346L479.222 90.142H479.371L482.312 78.6364H486.2L489.141 90.0781H489.3L492.134 78.6364H496.076L491.442 95H487.425L484.357 83.9418H484.134L481.065 95H477.038ZM503.477 95.3303C502.441 95.3303 501.507 95.1456 500.676 94.7763C499.852 94.3999 499.198 93.8459 498.715 93.1143C498.24 92.3828 498.002 91.4808 498.002 90.4084C498.002 89.4851 498.172 88.7216 498.513 88.1179C498.854 87.5142 499.319 87.0312 499.909 86.669C500.498 86.3068 501.162 86.0334 501.901 85.8487C502.646 85.657 503.417 85.5185 504.213 85.4332C505.171 85.3338 505.949 85.245 506.546 85.1669C507.142 85.0817 507.575 84.9538 507.845 84.7834C508.122 84.6058 508.261 84.3324 508.261 83.9631V83.8991C508.261 83.0966 508.023 82.4751 507.547 82.0348C507.071 81.5945 506.386 81.3743 505.491 81.3743C504.546 81.3743 503.797 81.5803 503.243 81.9922C502.696 82.4041 502.327 82.8906 502.135 83.4517L498.534 82.9403C498.818 81.946 499.287 81.1151 499.941 80.4474C500.594 79.7727 501.393 79.2685 502.338 78.9347C503.282 78.5938 504.326 78.4233 505.47 78.4233C506.258 78.4233 507.043 78.5156 507.824 78.7003C508.605 78.8849 509.319 79.1903 509.965 79.6165C510.612 80.0355 511.13 80.6072 511.521 81.3317C511.919 82.0561 512.117 82.9616 512.117 84.0483V95H508.41V92.7521H508.282C508.048 93.2067 507.718 93.6328 507.291 94.0305C506.872 94.4212 506.343 94.7372 505.704 94.9787C505.072 95.2131 504.33 95.3303 503.477 95.3303ZM504.479 92.4964C505.253 92.4964 505.924 92.3437 506.492 92.0384C507.061 91.7259 507.497 91.3139 507.803 90.8026C508.115 90.2912 508.271 89.7337 508.271 89.13V87.2017C508.151 87.3011 507.945 87.3935 507.654 87.4787C507.369 87.5639 507.05 87.6385 506.695 87.7024C506.34 87.7663 505.988 87.8232 505.64 87.8729C505.292 87.9226 504.99 87.9652 504.735 88.0007C504.159 88.0788 503.644 88.2067 503.19 88.3842C502.735 88.5618 502.377 88.8104 502.114 89.13C501.851 89.4425 501.72 89.8473 501.72 90.3445C501.72 91.0547 501.979 91.5909 502.497 91.9531C503.016 92.3153 503.676 92.4964 504.479 92.4964ZM524.166 78.6364V81.6193H514.759V78.6364H524.166ZM517.082 74.7159H520.938V90.0781C520.938 90.5966 521.017 90.9943 521.173 91.2713C521.336 91.5412 521.549 91.7259 521.812 91.8253C522.075 91.9247 522.366 91.9744 522.686 91.9744C522.927 91.9744 523.147 91.9567 523.346 91.9212C523.552 91.8857 523.708 91.8537 523.815 91.8253L524.465 94.8402C524.259 94.9112 523.964 94.9893 523.58 95.0746C523.204 95.1598 522.742 95.2095 522.195 95.2237C521.23 95.2521 520.36 95.1065 519.585 94.7869C518.811 94.4602 518.197 93.956 517.742 93.2741C517.295 92.5923 517.075 91.7401 517.082 90.7173V74.7159ZM534.354 95.3196C532.72 95.3196 531.317 94.9609 530.146 94.2436C528.981 93.5263 528.082 92.5355 527.45 91.2713C526.825 90 526.513 88.5369 526.513 86.8821C526.513 85.2202 526.832 83.7536 527.472 82.4822C528.111 81.2038 529.013 80.2095 530.178 79.4993C531.349 78.782 532.734 78.4233 534.332 78.4233C535.661 78.4233 536.836 78.6683 537.859 79.1584C538.888 79.6413 539.709 80.3267 540.32 81.2145C540.93 82.0952 541.278 83.125 541.364 84.304H537.678C537.528 83.5156 537.173 82.8587 536.612 82.3331C536.058 81.8004 535.316 81.5341 534.386 81.5341C533.597 81.5341 532.905 81.7472 532.308 82.1733C531.712 82.5923 531.246 83.196 530.913 83.9844C530.586 84.7727 530.423 85.7173 530.423 86.8182C530.423 87.9332 530.586 88.892 530.913 89.6946C531.239 90.4901 531.697 91.1044 532.287 91.5376C532.884 91.9638 533.583 92.1768 534.386 92.1768C534.954 92.1768 535.462 92.0703 535.909 91.8572C536.364 91.6371 536.744 91.321 537.049 90.9091C537.354 90.4972 537.564 89.9964 537.678 89.407H541.364C541.271 90.5646 540.93 91.5909 540.341 92.4858C539.751 93.3736 538.949 94.0696 537.933 94.5739C536.918 95.071 535.724 95.3196 534.354 95.3196ZM548.387 85.4119V95H544.53V73.1818H548.302V81.4169H548.493C548.877 80.4936 549.47 79.7656 550.273 79.233C551.082 78.6932 552.112 78.4233 553.362 78.4233C554.498 78.4233 555.489 78.6612 556.334 79.1371C557.18 79.6129 557.833 80.3089 558.295 81.2251C558.763 82.1413 558.998 83.2599 558.998 84.581V95H555.141V85.1776C555.141 84.0767 554.857 83.2209 554.289 82.6101C553.728 81.9922 552.939 81.6832 551.924 81.6832C551.242 81.6832 550.631 81.8324 550.091 82.1307C549.559 82.4219 549.14 82.8445 548.834 83.3984C548.536 83.9524 548.387 84.6236 548.387 85.4119ZM570.173 95.3196C568.532 95.3196 567.116 94.9787 565.922 94.2969C564.736 93.608 563.824 92.6349 563.184 91.3778C562.545 90.1136 562.226 88.6257 562.226 86.9141C562.226 85.2308 562.545 83.7536 563.184 82.4822C563.831 81.2038 564.733 80.2095 565.89 79.4993C567.048 78.782 568.408 78.4233 569.971 78.4233C570.979 78.4233 571.931 78.5866 572.826 78.9134C573.728 79.233 574.523 79.7301 575.212 80.4048C575.908 81.0795 576.455 81.9389 576.853 82.983C577.251 84.0199 577.449 85.2557 577.449 86.6903V87.8729H564.037V85.2734H573.753C573.746 84.5348 573.586 83.8778 573.273 83.3026C572.961 82.7202 572.524 82.2621 571.963 81.9283C571.409 81.5945 570.763 81.4276 570.024 81.4276C569.236 81.4276 568.543 81.6193 567.947 82.0028C567.35 82.3793 566.885 82.8764 566.551 83.4943C566.224 84.1051 566.057 84.7763 566.05 85.5078V87.777C566.05 88.7287 566.224 89.5455 566.572 90.2273C566.92 90.902 567.407 91.4205 568.032 91.7827C568.657 92.1378 569.388 92.3153 570.226 92.3153C570.787 92.3153 571.295 92.2372 571.75 92.081C572.204 91.9176 572.599 91.6797 572.932 91.3672C573.266 91.0547 573.518 90.6676 573.689 90.206L577.29 90.6108C577.062 91.5625 576.629 92.3935 575.99 93.1037C575.358 93.8068 574.548 94.3537 573.561 94.7443C572.574 95.1278 571.444 95.3196 570.173 95.3196ZM593.645 82.9616L590.13 83.3452C590.03 82.9901 589.856 82.6562 589.608 82.3438C589.366 82.0312 589.039 81.7791 588.627 81.5874C588.216 81.3956 587.711 81.2997 587.115 81.2997C586.312 81.2997 585.637 81.4737 585.091 81.8217C584.551 82.1697 584.284 82.6207 584.292 83.1747C584.284 83.6506 584.458 84.0376 584.814 84.3359C585.176 84.6342 585.772 84.8793 586.603 85.071L589.395 85.6676C590.943 86.0014 592.093 86.5305 592.846 87.255C593.606 87.9794 593.99 88.9276 593.997 90.0994C593.99 91.1293 593.688 92.0384 593.091 92.8267C592.502 93.608 591.681 94.2187 590.63 94.6591C589.579 95.0994 588.372 95.3196 587.008 95.3196C585.005 95.3196 583.393 94.9006 582.172 94.0625C580.95 93.2173 580.222 92.0419 579.988 90.5362L583.748 90.174C583.919 90.9126 584.281 91.4702 584.835 91.8466C585.389 92.223 586.11 92.4112 586.998 92.4112C587.914 92.4112 588.649 92.223 589.203 91.8466C589.764 91.4702 590.044 91.005 590.044 90.451C590.044 89.9822 589.863 89.5952 589.501 89.2898C589.146 88.9844 588.592 88.75 587.839 88.5866L585.048 88.0007C583.478 87.674 582.317 87.1236 581.564 86.3494C580.811 85.5682 580.439 84.581 580.446 83.3878C580.439 82.3793 580.712 81.5057 581.266 80.767C581.827 80.0213 582.605 79.446 583.599 79.0412C584.6 78.6293 585.755 78.4233 587.061 78.4233C588.979 78.4233 590.488 78.8317 591.589 79.6484C592.697 80.4652 593.382 81.5696 593.645 82.9616Z" fill="white"/>
<path d="M105.906 199.182H109.858V213.436C109.858 214.999 109.489 216.373 108.75 217.559C108.018 218.745 106.989 219.672 105.661 220.339C104.332 221 102.781 221.33 101.005 221.33C99.2223 221.33 97.6669 221 96.3388 220.339C95.0107 219.672 93.9808 218.745 93.2493 217.559C92.5178 216.373 92.152 214.999 92.152 213.436V199.182H96.1044V213.106C96.1044 214.015 96.3033 214.825 96.701 215.535C97.1058 216.245 97.674 216.803 98.4055 217.207C99.1371 217.605 100.004 217.804 101.005 217.804C102.006 217.804 102.873 217.605 103.604 217.207C104.343 216.803 104.911 216.245 105.309 215.535C105.707 214.825 105.906 214.015 105.906 213.106V199.182ZM114.154 221V199.182H122.336C124.012 199.182 125.418 199.494 126.555 200.119C127.698 200.744 128.561 201.604 129.143 202.697C129.733 203.784 130.028 205.02 130.028 206.405C130.028 207.804 129.733 209.047 129.143 210.134C128.554 211.22 127.684 212.076 126.533 212.701C125.383 213.319 123.966 213.628 122.282 213.628H116.86V210.379H121.75C122.73 210.379 123.532 210.208 124.157 209.867C124.782 209.526 125.244 209.058 125.542 208.461C125.848 207.864 126.001 207.179 126.001 206.405C126.001 205.631 125.848 204.949 125.542 204.359C125.244 203.77 124.779 203.312 124.147 202.985C123.522 202.651 122.716 202.484 121.729 202.484H118.106V221H114.154ZM148.903 204.636V207.619H139.496V204.636H148.903ZM141.818 200.716H145.675V216.078C145.675 216.597 145.753 216.994 145.909 217.271C146.072 217.541 146.286 217.726 146.548 217.825C146.811 217.925 147.102 217.974 147.422 217.974C147.663 217.974 147.884 217.957 148.082 217.921C148.288 217.886 148.445 217.854 148.551 217.825L149.201 220.84C148.995 220.911 148.7 220.989 148.317 221.075C147.94 221.16 147.479 221.21 146.932 221.224C145.966 221.252 145.096 221.107 144.322 220.787C143.548 220.46 142.933 219.956 142.479 219.274C142.031 218.592 141.811 217.74 141.818 216.717V200.716ZM159.09 221.32C157.492 221.32 156.107 220.968 154.935 220.265C153.763 219.562 152.854 218.578 152.208 217.314C151.569 216.05 151.249 214.572 151.249 212.882C151.249 211.192 151.569 209.711 152.208 208.44C152.854 207.168 153.763 206.181 154.935 205.478C156.107 204.775 157.492 204.423 159.09 204.423C160.688 204.423 162.073 204.775 163.245 205.478C164.417 206.181 165.322 207.168 165.961 208.44C166.608 209.711 166.931 211.192 166.931 212.882C166.931 214.572 166.608 216.05 165.961 217.314C165.322 218.578 164.417 219.562 163.245 220.265C162.073 220.968 160.688 221.32 159.09 221.32ZM159.111 218.23C159.978 218.23 160.702 217.992 161.285 217.516C161.867 217.033 162.3 216.387 162.584 215.577C162.876 214.768 163.021 213.866 163.021 212.871C163.021 211.87 162.876 210.964 162.584 210.155C162.3 209.338 161.867 208.688 161.285 208.205C160.702 207.722 159.978 207.481 159.111 207.481C158.224 207.481 157.485 207.722 156.895 208.205C156.313 208.688 155.876 209.338 155.585 210.155C155.301 210.964 155.159 211.87 155.159 212.871C155.159 213.866 155.301 214.768 155.585 215.577C155.876 216.387 156.313 217.033 156.895 217.516C157.485 217.992 158.224 218.23 159.111 218.23ZM185.359 221.298C183.775 221.298 182.369 221.032 181.14 220.499C179.918 219.967 178.96 219.239 178.263 218.315C177.575 217.385 177.234 216.33 177.241 215.151C177.234 214.235 177.433 213.393 177.837 212.626C178.242 211.859 178.789 211.22 179.478 210.709C180.174 210.19 180.948 209.86 181.8 209.718V209.569C180.678 209.32 179.769 208.749 179.073 207.854C178.384 206.952 178.043 205.911 178.05 204.732C178.043 203.61 178.356 202.609 178.988 201.728C179.62 200.847 180.487 200.155 181.587 199.651C182.688 199.139 183.945 198.884 185.359 198.884C186.758 198.884 188.004 199.139 189.098 199.651C190.199 200.155 191.065 200.847 191.697 201.728C192.337 202.609 192.656 203.61 192.656 204.732C192.656 205.911 192.305 206.952 191.602 207.854C190.906 208.749 190.007 209.32 188.906 209.569V209.718C189.759 209.86 190.526 210.19 191.207 210.709C191.896 211.22 192.443 211.859 192.848 212.626C193.26 213.393 193.466 214.235 193.466 215.151C193.466 216.33 193.118 217.385 192.422 218.315C191.726 219.239 190.767 219.967 189.545 220.499C188.331 221.032 186.935 221.298 185.359 221.298ZM185.359 218.251C186.175 218.251 186.886 218.113 187.489 217.836C188.093 217.552 188.562 217.154 188.896 216.643C189.229 216.131 189.4 215.542 189.407 214.874C189.4 214.178 189.219 213.564 188.864 213.031C188.516 212.491 188.036 212.069 187.425 211.763C186.822 211.458 186.133 211.305 185.359 211.305C184.577 211.305 183.881 211.458 183.271 211.763C182.66 212.069 182.177 212.491 181.822 213.031C181.474 213.564 181.303 214.178 181.31 214.874C181.303 215.542 181.467 216.131 181.8 216.643C182.134 217.147 182.603 217.541 183.207 217.825C183.817 218.109 184.535 218.251 185.359 218.251ZM185.359 208.312C186.026 208.312 186.616 208.177 187.127 207.907C187.646 207.637 188.054 207.261 188.352 206.778C188.651 206.295 188.803 205.737 188.81 205.105C188.803 204.48 188.654 203.933 188.363 203.464C188.072 202.989 187.667 202.623 187.148 202.367C186.63 202.104 186.033 201.973 185.359 201.973C184.67 201.973 184.063 202.104 183.537 202.367C183.018 202.623 182.614 202.989 182.322 203.464C182.038 203.933 181.9 204.48 181.907 205.105C181.9 205.737 182.042 206.295 182.333 206.778C182.631 207.254 183.04 207.63 183.558 207.907C184.084 208.177 184.684 208.312 185.359 208.312ZM205.033 221.415C203.279 221.415 201.773 220.972 200.516 220.084C199.266 219.189 198.303 217.9 197.629 216.217C196.961 214.526 196.627 212.491 196.627 210.112C196.634 207.733 196.972 205.709 197.639 204.04C198.314 202.364 199.276 201.085 200.526 200.205C201.784 199.324 203.286 198.884 205.033 198.884C206.78 198.884 208.282 199.324 209.539 200.205C210.796 201.085 211.759 202.364 212.426 204.04C213.101 205.716 213.438 207.74 213.438 210.112C213.438 212.499 213.101 214.537 212.426 216.227C211.759 217.911 210.796 219.196 209.539 220.084C208.289 220.972 206.787 221.415 205.033 221.415ZM205.033 218.081C206.396 218.081 207.472 217.41 208.261 216.067C209.056 214.718 209.454 212.733 209.454 210.112C209.454 208.379 209.273 206.923 208.911 205.744C208.548 204.565 208.037 203.678 207.377 203.081C206.716 202.477 205.935 202.175 205.033 202.175C203.676 202.175 202.604 202.85 201.816 204.2C201.027 205.542 200.629 207.513 200.622 210.112C200.615 211.852 200.789 213.315 201.144 214.501C201.507 215.687 202.018 216.582 202.678 217.186C203.339 217.783 204.124 218.081 205.033 218.081ZM228.643 216.909V215.759C228.643 214.913 228.821 214.136 229.176 213.425C229.538 212.715 230.064 212.143 230.753 211.71C231.442 211.277 232.276 211.06 233.256 211.06C234.265 211.06 235.11 211.277 235.792 211.71C236.474 212.136 236.989 212.705 237.337 213.415C237.692 214.125 237.869 214.906 237.869 215.759V216.909C237.869 217.754 237.692 218.532 237.337 219.242C236.982 219.952 236.46 220.524 235.771 220.957C235.089 221.391 234.251 221.607 233.256 221.607C232.262 221.607 231.42 221.391 230.732 220.957C230.043 220.524 229.521 219.952 229.165 219.242C228.817 218.532 228.643 217.754 228.643 216.909ZM231.424 215.759V216.909C231.424 217.47 231.559 217.985 231.829 218.454C232.099 218.923 232.575 219.157 233.256 219.157C233.945 219.157 234.418 218.926 234.673 218.464C234.936 217.996 235.067 217.477 235.067 216.909V215.759C235.067 215.19 234.943 214.672 234.695 214.203C234.446 213.727 233.967 213.489 233.256 213.489C232.589 213.489 232.116 213.727 231.839 214.203C231.563 214.672 231.424 215.19 231.424 215.759ZM217.553 204.423V203.273C217.553 202.42 217.734 201.639 218.097 200.929C218.459 200.219 218.984 199.651 219.673 199.224C220.362 198.791 221.197 198.575 222.177 198.575C223.178 198.575 224.02 198.791 224.702 199.224C225.391 199.651 225.909 200.219 226.257 200.929C226.605 201.639 226.779 202.42 226.779 203.273V204.423C226.779 205.276 226.602 206.057 226.246 206.767C225.898 207.47 225.38 208.035 224.691 208.461C224.002 208.887 223.164 209.1 222.177 209.1C221.175 209.1 220.33 208.887 219.641 208.461C218.96 208.035 218.441 207.467 218.086 206.756C217.731 206.046 217.553 205.268 217.553 204.423ZM220.355 203.273V204.423C220.355 204.991 220.487 205.51 220.749 205.979C221.019 206.44 221.495 206.671 222.177 206.671C222.859 206.671 223.327 206.44 223.583 205.979C223.846 205.51 223.977 204.991 223.977 204.423V203.273C223.977 202.705 223.853 202.186 223.604 201.717C223.356 201.241 222.88 201.004 222.177 201.004C221.502 201.004 221.03 201.241 220.76 201.717C220.49 202.193 220.355 202.712 220.355 203.273ZM218.768 221L233.768 199.182H236.431L221.431 221H218.768ZM269.441 210.091C269.441 212.442 269 214.455 268.12 216.131C267.246 217.8 266.053 219.079 264.54 219.967C263.034 220.854 261.326 221.298 259.416 221.298C257.505 221.298 255.794 220.854 254.281 219.967C252.775 219.072 251.582 217.79 250.701 216.121C249.828 214.445 249.391 212.435 249.391 210.091C249.391 207.74 249.828 205.73 250.701 204.061C251.582 202.385 252.775 201.103 254.281 200.215C255.794 199.327 257.505 198.884 259.416 198.884C261.326 198.884 263.034 199.327 264.54 200.215C266.053 201.103 267.246 202.385 268.12 204.061C269 205.73 269.441 207.74 269.441 210.091ZM265.467 210.091C265.467 208.436 265.208 207.04 264.689 205.904C264.178 204.761 263.468 203.898 262.559 203.315C261.65 202.726 260.602 202.431 259.416 202.431C258.23 202.431 257.182 202.726 256.273 203.315C255.364 203.898 254.65 204.761 254.132 205.904C253.62 207.04 253.365 208.436 253.365 210.091C253.365 211.746 253.62 213.145 254.132 214.288C254.65 215.425 255.364 216.288 256.273 216.877C257.182 217.46 258.23 217.751 259.416 217.751C260.602 217.751 261.65 217.46 262.559 216.877C263.468 216.288 264.178 215.425 264.689 214.288C265.208 213.145 265.467 211.746 265.467 210.091ZM273.177 221V199.182H287.155V202.495H277.13V208.418H286.196V211.732H277.13V221H273.177ZM290.756 221V199.182H304.733V202.495H294.708V208.418H303.774V211.732H294.708V221H290.756Z" fill="white"/>
</svg>
